<?xml version="1.0" standalone="no"?>
<!DOCTYPE svg PUBLIC "-//W3C//DTD SVG 20010904//EN"
 "http://www.w3.org/TR/2001/REC-SVG-20010904/DTD/svg10.dtd">
<svg version="1.0" xmlns="http://www.w3.org/2000/svg"
 width="1280.000000pt" height="1158.000000pt" viewBox="0 0 1280.000000 1158.000000"
 preserveAspectRatio="xMidYMid meet">
<metadata>
Created by potrace 1.15, written by Peter Selinger 2001-2017
</metadata>
<g transform="translate(0.000000,1158.000000) scale(0.100000,-0.100000)"
fill="#000000" stroke="none">
<path d="M6395 11568 c-93 -33 -239 -161 -375 -328 -85 -105 -146 -163 -163
-157 -23 7 -48 66 -71 173 -50 227 -80 220 -95 -20 -5 -87 -13 -141 -24 -162
-31 -60 -151 -93 -215 -60 -32 16 -96 83 -165 172 -76 98 -128 112 -106 29 6
-22 26 -75 46 -118 22 -50 33 -89 31 -110 -3 -29 -6 -32 -39 -35 -25 -2 -77
12 -160 43 -117 44 -208 64 -256 57 -38 -6 -26 -20 48 -59 81 -44 149 -89 149
-101 0 -15 -74 -50 -241 -116 -419 -165 -748 -346 -1044 -575 -355 -276 -573
-542 -694 -847 -129 -325 -146 -623 -67 -1140 38 -244 48 -404 28 -440 -15
-29 -49 -41 -164 -59 -171 -26 -300 -89 -405 -197 -126 -130 -187 -284 -199
-503 -11 -202 30 -311 165 -445 90 -89 168 -131 291 -155 97 -19 153 -47 169
-82 8 -17 9 -59 5 -127 -5 -89 -4 -109 16 -165 27 -76 24 -112 -22 -298 -29
-115 -32 -143 -32 -283 -1 -85 3 -213 7 -285 l8 -130 -121 -130 c-173 -187
-225 -265 -357 -535 -138 -284 -179 -355 -348 -620 -208 -324 -314 -512 -421
-743 -124 -266 -179 -465 -193 -687 -9 -134 -11 -144 -43 -198 -21 -37 -118
-142 -278 -303 -280 -281 -324 -314 -602 -454 -416 -211 -511 -310 -437 -462
43 -89 151 -140 314 -150 209 -12 449 63 745 234 121 70 225 123 240 123 24 0
3 -52 -110 -277 -133 -264 -160 -333 -160 -405 0 -87 37 -129 163 -188 130
-61 255 -37 401 79 77 61 174 169 300 334 113 148 191 235 201 225 12 -11 24
-145 25 -261 1 -341 65 -515 221 -596 57 -29 71 -32 121 -28 121 11 278 126
346 254 60 113 105 292 137 543 14 106 32 170 50 170 2 0 102 -29 222 -64 304
-89 402 -109 548 -109 136 -1 208 17 295 73 77 49 93 84 88 183 -6 119 -37
182 -120 243 -115 85 -297 166 -401 179 -32 4 -68 16 -82 27 -14 11 -55 80
-91 154 -36 74 -90 171 -120 214 -30 44 -54 90 -54 104 0 13 13 54 29 90 44
98 84 218 146 446 75 272 93 306 248 457 182 177 243 211 364 200 128 -12 149
-41 147 -206 -1 -118 -7 -167 -68 -556 -78 -504 -74 -647 26 -844 76 -151 224
-271 428 -347 132 -50 204 -57 585 -58 393 -1 411 2 577 85 277 138 378 270
578 754 121 291 195 402 275 411 23 3 51 -1 65 -8 36 -19 73 -116 131 -346 80
-315 108 -387 176 -463 48 -53 110 -84 214 -106 72 -15 136 -18 454 -18 410 0
443 4 560 61 91 44 161 98 207 159 20 27 75 119 122 206 121 224 257 428 417
625 86 107 209 234 226 234 7 0 17 -8 22 -19 32 -59 91 -293 91 -359 0 -44 -6
-58 -54 -123 -59 -82 -108 -172 -157 -294 -42 -105 -73 -133 -244 -224 -186
-99 -267 -151 -332 -216 -144 -145 -138 -303 16 -447 96 -90 130 -102 281
-102 210 1 344 47 650 223 l115 66 100 -1 c187 -3 349 -61 522 -187 170 -124
407 -250 563 -299 69 -21 92 -23 290 -23 246 0 296 10 349 70 29 33 37 53 61
153 l11 43 262 -7 c298 -8 368 -1 484 48 184 76 245 178 173 291 -55 87 -191
163 -407 228 -141 43 -203 67 -203 80 0 16 104 39 295 64 279 37 565 110 633
162 48 37 76 103 69 165 -17 140 -175 284 -359 326 -96 21 -653 23 -828 2
-138 -17 -169 -16 -207 3 -16 9 -91 68 -168 132 -77 64 -173 138 -214 164 -41
25 -90 61 -109 79 -32 30 -34 35 -28 80 15 103 35 144 105 207 113 103 161
158 189 215 23 47 27 67 27 140 -1 152 -50 255 -185 388 -89 88 -200 165 -385
267 -241 134 -261 152 -415 381 -215 320 -272 366 -510 415 -127 26 -139 32
-181 92 -81 117 -370 409 -543 550 -96 79 -138 227 -166 585 -12 166 -30 242
-76 334 -43 85 -48 141 -16 185 11 16 62 53 114 83 115 67 204 153 243 235 23
49 29 77 33 151 8 171 -43 279 -211 449 l-108 110 19 60 c11 33 50 146 86 250
36 105 74 235 85 290 48 238 54 738 12 961 -42 223 -116 429 -236 661 -286
549 -685 892 -1275 1095 -276 94 -574 142 -985 158 -367 15 -395 17 -395 39 0
49 115 200 256 336 113 110 121 135 29 103z m335 -628 c686 -61 1223 -303
1593 -715 306 -342 487 -779 552 -1338 45 -375 -21 -740 -195 -1086 -75 -151
-110 -184 -239 -226 -95 -31 -204 -106 -284 -195 -69 -77 -106 -167 -76 -185
6 -4 63 44 127 107 144 141 146 141 368 136 185 -4 204 -10 288 -95 82 -81
101 -127 101 -243 0 -161 -46 -225 -230 -325 -110 -60 -161 -101 -184 -148
-37 -77 -27 -125 68 -334 101 -223 95 -283 -39 -369 -33 -22 -60 -42 -60 -46
0 -3 17 -9 38 -13 130 -22 198 -139 209 -362 12 -227 -45 -410 -184 -598 -72
-97 -140 -160 -254 -235 -234 -154 -509 -199 -802 -131 -105 25 -158 26 -198
6 -16 -9 -125 -80 -242 -159 -311 -208 -438 -265 -679 -305 -267 -44 -645 -55
-712 -21 -66 34 -32 54 123 76 404 56 514 93 669 224 90 76 143 109 317 200
66 34 140 77 165 96 107 77 195 195 301 401 78 153 92 220 87 416 -3 132 -7
157 -26 194 -22 41 -59 76 -72 68 -4 -3 -11 -69 -14 -147 -16 -318 -90 -523
-260 -722 -93 -109 -245 -205 -376 -237 -124 -30 -309 -6 -410 53 -110 65
-225 237 -274 411 -20 70 -31 72 -135 22 -101 -48 -119 -47 -177 18 -79 87
-87 115 -82 291 5 186 16 216 85 216 52 0 77 -15 150 -90 l70 -72 58 103 c111
201 188 287 315 353 104 54 181 74 384 100 118 15 157 34 116 56 -13 7 -100
16 -204 21 -262 13 -368 25 -483 53 -138 33 -250 40 -426 27 -214 -17 -292
-40 -612 -181 -77 -34 -171 -73 -210 -87 -89 -32 -133 -63 -251 -174 -111
-104 -141 -122 -197 -117 l-42 3 2 -35 c2 -19 4 -78 5 -130 1 -90 -1 -101 -41
-204 -79 -205 -64 -273 49 -216 62 32 83 27 153 -38 34 -32 123 -101 197 -154
159 -113 230 -184 295 -293 26 -44 65 -104 88 -133 32 -42 39 -57 31 -70 -31
-49 -119 -79 -340 -117 -568 -98 -983 22 -1368 394 -171 167 -278 314 -337
466 -64 164 -77 430 -29 604 15 57 67 111 107 111 46 0 135 30 171 57 66 50
51 76 -39 66 -32 -3 -69 -3 -84 1 -35 9 -132 100 -156 148 -25 49 -24 82 6
175 33 105 32 134 -6 178 -27 30 -50 41 -177 81 -254 80 -356 149 -426 288
-42 83 -44 131 -8 268 55 210 130 335 244 408 79 52 146 70 255 70 199 0 305
-58 431 -235 67 -94 79 -96 70 -7 -7 67 -37 124 -125 232 -42 52 -83 111 -91
130 -10 24 -17 96 -23 230 -5 107 -20 307 -34 444 -38 382 -33 564 25 791 69
275 213 509 470 765 255 256 608 483 1005 648 162 67 468 170 530 178 47 5 54
3 110 -35 67 -46 111 -53 140 -21 17 19 17 33 -1 94 -4 12 15 2 61 -33 100
-77 145 -65 145 38 0 63 16 75 100 73 101 -2 160 -31 175 -87 8 -29 17 -41 32
-43 29 -4 89 51 104 96 23 74 55 92 189 111 41 6 86 13 100 15 56 8 332 5 440
-4z m-844 -4874 c171 -36 173 -66 12 -223 -87 -84 -119 -101 -166 -87 -15 4
-67 8 -117 8 -75 0 -98 -4 -140 -25 -78 -38 -89 -66 -93 -231 -5 -161 13 -268
59 -366 47 -98 81 -126 201 -163 57 -17 117 -40 135 -50 19 -12 55 -57 89
-110 107 -170 218 -264 380 -322 72 -26 90 -36 92 -54 3 -18 -8 -30 -45 -53
-88 -56 -219 -82 -497 -101 -342 -22 -497 20 -603 163 -19 27 -59 97 -89 158
-68 136 -130 201 -302 318 -191 130 -255 204 -288 331 -11 46 -14 82 -9 129
24 224 89 302 373 445 256 130 476 213 622 237 41 6 82 13 90 15 32 8 228 -5
296 -19z m3125 -795 c24 -15 81 -66 126 -112 185 -189 389 -480 568 -809 114
-211 174 -281 466 -542 192 -171 358 -339 406 -408 49 -72 80 -140 107 -236
78 -269 43 -421 -119 -529 -278 -184 -792 -300 -978 -221 -76 33 -144 126
-197 268 -10 29 -37 118 -60 197 -69 239 -133 354 -257 456 -192 158 -564 265
-815 235 -188 -22 -308 -66 -703 -260 -559 -274 -671 -310 -960 -310 -211 0
-378 38 -451 102 -47 41 -44 68 11 127 25 26 45 51 45 55 0 14 -45 2 -284 -78
-329 -110 -482 -136 -801 -136 -299 1 -460 40 -831 201 l-181 79 -111 -44
c-181 -71 -336 -180 -448 -314 -72 -86 -89 -123 -222 -493 -60 -168 -122 -330
-137 -359 -69 -136 -230 -226 -516 -287 -127 -27 -399 -24 -539 6 -123 26
-256 74 -337 122 -72 42 -213 180 -242 236 -27 55 -28 138 -1 263 93 435 153
567 483 1075 250 384 386 620 441 768 60 160 177 356 270 451 57 58 126 106
154 106 21 0 53 -33 137 -140 213 -270 539 -502 865 -613 297 -102 646 -99
935 7 127 46 173 37 459 -91 105 -47 223 -93 263 -103 99 -26 272 -40 490 -40
485 0 785 101 1163 392 154 118 157 119 420 92 337 -35 555 8 765 149 80 54
256 233 327 333 101 142 178 308 178 384 0 56 43 65 111 21z m830 -619 c66
-42 139 -128 220 -258 163 -264 271 -363 566 -517 166 -87 244 -139 316 -210
81 -79 97 -117 97 -229 -1 -106 -13 -149 -59 -207 -34 -43 -73 -60 -100 -44
-9 5 -50 74 -91 152 -41 79 -99 172 -129 208 -29 36 -142 141 -250 235 -402
350 -552 531 -647 786 -33 86 -32 112 4 112 15 0 48 -13 73 -28z m-1421 -1234
c82 -43 105 -139 89 -368 -9 -129 -50 -439 -69 -524 -5 -22 -7 -42 -5 -44 5
-5 50 75 85 151 39 86 94 277 115 399 9 51 20 153 24 226 5 73 12 137 18 143
15 15 198 -82 275 -146 77 -64 163 -173 180 -228 9 -31 9 -44 -4 -70 -22 -47
-160 -227 -326 -427 -162 -194 -232 -298 -347 -505 -168 -305 -232 -363 -420
-384 -146 -16 -480 -22 -615 -12 -277 22 -319 70 -425 485 -43 170 -63 314
-48 348 8 17 37 34 109 62 134 52 400 188 504 257 120 80 216 185 369 404 89
127 128 174 175 208 68 49 241 63 316 25z m-691 -260 c-103 -202 -638 -503
-999 -562 -228 -37 -884 -50 -1075 -21 -210 32 -586 146 -775 236 -110 53
-143 75 -133 91 3 7 101 8 272 3 311 -8 339 -5 672 78 l216 53 73 -33 c272
-124 378 -147 635 -140 302 9 511 68 862 243 283 141 299 144 252 52z m-3154
-348 c277 -186 713 -335 1155 -394 63 -9 194 -22 290 -31 195 -17 269 -30 277
-51 7 -20 -157 -435 -228 -575 -156 -307 -306 -406 -664 -439 -256 -23 -567
-4 -703 43 -215 75 -344 203 -399 398 -26 95 -24 377 5 557 26 161 99 495 118
540 l13 33 33 -17 c18 -9 65 -38 103 -64z m6332 -232 c84 -41 224 -149 360
-275 l114 -106 246 27 c481 54 748 43 911 -36 107 -51 111 -193 9 -238 -104
-46 -402 -99 -837 -150 -345 -40 -495 -64 -506 -81 -13 -22 286 -136 691 -264
201 -64 285 -99 333 -139 38 -33 43 -75 12 -104 -53 -49 -232 -77 -435 -69
-243 11 -414 61 -747 221 -65 31 -132 59 -150 63 l-33 6 25 -28 c14 -15 84
-76 155 -135 148 -122 214 -189 244 -248 38 -75 20 -126 -61 -166 -69 -35
-112 -33 -258 9 -283 83 -475 179 -695 350 -122 94 -162 114 -262 130 -100 17
-131 23 -336 72 l-147 35 -69 -65 c-80 -75 -132 -112 -221 -157 -163 -82 -354
-137 -441 -127 -84 10 -163 62 -200 131 -35 67 -18 110 80 206 67 67 95 85
236 158 238 121 311 188 351 320 29 96 85 202 137 258 67 73 98 81 362 88 116
3 251 12 302 21 186 30 348 97 523 215 137 93 190 120 220 114 14 -3 53 -19
87 -36z m-9301 -666 c151 -90 302 -153 429 -179 73 -14 138 -18 345 -18 303 0
375 11 619 88 l164 51 58 -62 c61 -65 113 -156 144 -252 21 -65 55 -114 99
-141 17 -10 90 -37 161 -60 237 -74 365 -152 400 -243 16 -40 16 -46 0 -75
-66 -128 -290 -115 -795 47 -233 75 -335 99 -355 82 -20 -17 -42 -125 -60
-300 -32 -315 -57 -435 -110 -526 -47 -81 -138 -139 -233 -151 -67 -8 -108 14
-122 66 -15 57 -36 210 -60 431 -45 421 -78 503 -179 437 -47 -31 -112 -106
-271 -312 -145 -188 -292 -338 -370 -380 -45 -24 -70 -30 -141 -33 -70 -4 -88
-1 -102 13 -43 42 -6 159 142 451 143 283 165 360 122 431 -39 63 -75 56 -286
-57 -388 -208 -590 -291 -764 -312 -117 -15 -176 -5 -218 37 -41 41 -42 73 -6
116 36 42 112 90 391 245 301 166 389 233 635 483 109 111 206 201 215 201 10
0 76 -35 148 -78z"/>
<path d="M6536 9319 c-59 -14 -76 -34 -76 -89 0 -97 66 -126 350 -150 258 -22
398 -60 517 -141 80 -54 211 -189 283 -289 75 -106 95 -127 105 -111 18 30
-66 216 -148 327 -111 149 -296 299 -460 374 -137 62 -229 82 -387 86 -80 2
-163 -1 -184 -7z"/>
<path d="M4870 9304 c-146 -39 -347 -162 -481 -294 -149 -148 -337 -461 -347
-576 -4 -49 -3 -54 16 -54 24 0 57 36 144 160 93 133 165 209 278 294 107 79
230 144 383 202 54 20 112 48 128 61 67 57 40 201 -41 217 -14 3 -50 -2 -80
-10z"/>
<path d="M4980 8316 c-103 -38 -233 -120 -319 -200 -71 -67 -128 -140 -305
-390 -158 -222 -266 -361 -404 -518 -123 -140 -166 -209 -129 -208 6 1 37 12
67 25 36 15 58 20 65 14 6 -6 10 -62 10 -127 -1 -149 -8 -163 -162 -325 -117
-122 -193 -224 -193 -259 0 -34 17 -24 159 95 204 172 373 255 617 304 67 13
138 17 284 17 208 0 289 -10 465 -59 50 -14 101 -25 114 -25 22 0 23 3 17 38
-11 68 -25 274 -36 527 -23 554 -48 642 -235 834 l-103 106 114 68 c63 37 114
74 114 82 0 19 -90 19 -140 1z m-77 -357 c53 -35 121 -115 147 -174 26 -57 52
-177 41 -188 -6 -6 -50 -4 -113 3 -124 15 -140 10 -213 -72 -97 -108 -122
-199 -86 -316 28 -92 72 -149 141 -185 51 -27 60 -28 135 -23 44 4 94 8 110 9
l30 2 -1 -68 c-1 -97 -5 -100 -135 -86 -66 7 -203 9 -374 6 -223 -4 -287 -9
-365 -26 -52 -11 -98 -21 -102 -21 -5 0 -8 65 -8 145 0 176 10 207 113 362 96
143 416 571 453 604 75 68 152 78 227 28z m-83 -494 c14 -17 10 -47 -7 -52
-15 -5 -47 42 -38 57 9 14 31 12 45 -5z"/>
<path d="M6692 8291 c-20 -12 2 -31 165 -138 79 -52 143 -98 143 -103 0 -4
-48 -39 -107 -77 -173 -110 -293 -237 -381 -403 -75 -140 -95 -240 -112 -565
-15 -291 -22 -323 -77 -385 -25 -28 -65 -62 -90 -76 -56 -33 -109 -30 -209 14
-98 43 -195 57 -304 43 -152 -19 -252 -63 -342 -149 -103 -98 -74 -103 122
-22 165 68 185 73 254 67 88 -9 228 -51 323 -99 95 -47 103 -46 175 20 61 56
137 96 258 136 210 70 433 101 669 94 143 -5 164 -8 254 -38 188 -63 368 -184
497 -335 100 -118 146 -139 121 -56 -17 59 -81 148 -201 282 -148 164 -149
166 -128 376 9 89 20 167 23 173 4 6 32 -11 67 -40 71 -60 88 -63 88 -16 0 83
-174 489 -275 641 -169 256 -528 553 -769 636 -81 29 -140 36 -164 20z m522
-395 c47 -20 99 -68 170 -160 88 -113 162 -234 185 -303 42 -129 59 -496 27
-605 -23 -80 -41 -92 -123 -85 -280 26 -357 29 -538 24 -124 -4 -229 -12 -277
-22 -128 -27 -145 -1 -135 215 16 349 100 614 243 768 122 133 339 214 448
168z"/>
<path d="M7084 7596 c-49 -22 -104 -83 -138 -155 -54 -114 -38 -239 46 -365
33 -51 79 -85 141 -106 77 -25 161 33 216 150 23 49 26 67 25 160 0 85 -4 116
-23 164 -25 63 -78 129 -122 152 -35 18 -104 18 -145 0z"/>
<path d="M6805 6080 c-12 -20 44 -63 165 -125 132 -67 211 -98 221 -88 13 13
-27 85 -72 131 -25 25 -64 50 -98 63 -70 26 -204 38 -216 19z"/>
<path d="M6579 5708 c-71 -9 -154 -45 -233 -102 -120 -85 -158 -160 -164 -322
-6 -157 10 -208 91 -289 36 -36 87 -74 122 -91 55 -26 69 -29 170 -28 95 0
119 4 178 27 179 70 292 205 305 362 8 106 -43 210 -163 331 -94 94 -186 128
-306 112z m91 -146 c49 -24 58 -68 36 -181 -20 -103 -79 -282 -107 -328 -30
-49 -48 -55 -106 -38 -70 21 -138 69 -158 112 -40 84 -10 259 62 363 48 69 88
90 173 90 42 0 77 -6 100 -18z m232 -123 c22 -43 24 -146 3 -215 -19 -63 -68
-124 -101 -124 -34 0 -38 18 -20 81 9 30 24 97 35 149 32 159 48 180 83 109z"/>
<path d="M7578 5469 c-12 -6 -18 -22 -18 -46 0 -28 8 -44 39 -74 46 -46 83
-51 106 -15 21 32 12 66 -28 104 -36 35 -74 47 -99 31z"/>
</g>
</svg>
